<svg width="525.8399902343749px" height="123.27999877929688px" xmlns="http://www.w3.org/2000/svg" viewBox="-12.919995117187455 13.360000610351562 525.8399902343749 123.27999877929688" style="background: rgba(238, 0, 0, 0);" preserveAspectRatio="xMidYMid"><defs><filter id="editing-lego" x="-100%" y="-100%" width="300%" height="300%"><feFlood flood-color="#000" result="f1"></feFlood><feFlood flood-color="#ffff00" result="f2"></feFlood><feMorphology operator="dilate" radius="3" in="SourceAlpha"></feMorphology><feConvolveMatrix order="5,5" divisor="1" result="cm1" kernelMatrix="0 1 1 1 0  1 0 0 0 1  1 0 0 0 1  1 0 0 0 1  0 1 1 1 0"></feConvolveMatrix><feComposite operator="in" in="f1" in2="cm1" result="c1"></feComposite><feMorphology operator="dilate" radius="3"></feMorphology><feConvolveMatrix order="5,5" divisor="1" result="cm2" kernelMatrix="0 1 1 1 0  1 0 0 0 1  1 0 0 0 1  1 0 0 0 1  0 1 1 1 0"></feConvolveMatrix><feComposite operator="in" in="f2" in2="cm2" result="c2"></feComposite><feMerge><feMergeNode in="c2"></feMergeNode><feMergeNode in="c1"></feMergeNode><feMergeNode in="SourceGraphic"></feMergeNode></feMerge></filter></defs><g filter="url(#editing-lego)"><g transform="translate(66.31998658180237, 97.01499557495117)"><path d="M14.21 0L0.51 0L8.32-42.05L8.32-42.05Q14.66-42.75 23.90-42.75L23.90-42.75L23.90-42.75Q33.15-42.75 37.44-40.06L37.44-40.06L37.44-40.06Q41.73-37.38 41.73-31.97L41.73-31.97L41.73-31.97Q41.73-26.56 38.94-23.17L38.94-23.17L38.94-23.17Q36.16-19.78 31.36-18.69L31.36-18.69L31.36-18.69Q32.45-13.38 34.94-9.09L34.94-9.09L34.94-9.09Q37.25-5.06 39.94-3.78L39.94-3.78L39.94-3.78Q38.98-1.09 37.02 0.10L37.02 0.10L37.02 0.10Q35.07 1.28 32.29 1.28L32.29 1.28L32.29 1.28Q29.50 1.28 27.33-0.35L27.33-0.35L27.33-0.35Q25.15-1.98 23.42-4.99L23.42-4.99L23.42-4.99Q19.78-11.52 19.39-21.82L19.39-21.82L19.84-21.82L19.84-21.82Q24.58-21.95 26.94-24.42L26.94-24.42L26.94-24.42Q29.31-26.88 29.31-32.06L29.31-32.06L29.31-32.06Q29.31-38.53 23.87-38.78L23.87-38.78L22.46-38.78L22.46-38.78Q21.89-38.78 21.57-38.72L21.57-38.72L14.21 0ZM70.59-10.82L70.59-10.82L70.59-10.82Q72.19-9.73 72.19-7.33L72.19-7.33L72.19-7.33Q72.19-4.93 70.98-3.39L70.98-3.39L70.98-3.39Q69.76-1.86 67.78-0.83L67.78-0.83L67.78-0.83Q63.68 1.28 59.26 1.28L59.26 1.28L59.26 1.28Q54.85 1.28 52.26 0.32L52.26 0.32L52.26 0.32Q49.66-0.64 47.94-2.43L47.94-2.43L47.94-2.43Q44.54-5.82 44.54-12.03L44.54-12.03L44.54-12.03Q44.54-21.70 49.79-27.58L49.79-27.58L49.79-27.58Q55.42-33.92 65.22-33.92L65.22-33.92L65.22-33.92Q71.30-33.92 74.30-31.36L74.30-31.36L74.30-31.36Q76.54-29.44 76.54-26.30L76.54-26.30L76.54-26.30Q76.54-15.04 57.09-15.04L57.09-15.04L57.09-15.04Q56.83-13.38 56.83-11.97L56.83-11.97L56.83-11.97Q56.83-9.02 58.14-7.90L58.14-7.90L58.14-7.90Q59.46-6.78 61.89-6.78L61.89-6.78L61.89-6.78Q64.32-6.78 66.91-7.90L66.91-7.90L66.91-7.90Q69.50-9.02 70.59-10.82ZM57.54-17.79L57.54-17.79L57.54-17.79Q62.08-17.79 64.70-20.61L64.70-20.61L64.70-20.61Q67.33-23.30 67.33-27.58L67.33-27.58L67.33-27.58Q67.33-29.06 66.78-29.86L66.78-29.86L66.78-29.86Q66.24-30.66 65.15-30.66L65.15-30.66L65.15-30.66Q64.06-30.66 63.14-30.24L63.14-30.24L63.14-30.24Q62.21-29.82 61.25-28.42L61.25-28.42L61.25-28.42Q58.88-25.22 57.54-17.79ZM105.79 1.28L105.79 1.28L105.79 1.28Q98.05 1.28 98.05-4.74L98.05-4.74L98.05-4.74Q98.11-6.40 98.62-9.22L98.62-9.22L99.78-15.10L99.78-15.10Q101.50-23.42 101.50-25.28L101.50-25.28L101.50-25.28Q101.50-28.99 99.33-28.99L99.33-28.99L99.33-28.99Q95.68-28.99 93.76-19.46L93.76-19.46L89.98 0L77.12 1.28L83.78-32.70L94.27-33.92L93.25-27.65L93.25-27.65Q96.26-33.92 105.47-33.92L105.47-33.92L105.47-33.92Q109.95-33.92 111.84-32.03L111.84-32.03L111.84-32.03Q113.73-30.14 113.73-25.92L113.73-25.92L113.73-25.92Q113.73-21.95 111.68-12.67L111.68-12.67L111.68-12.67Q110.72-8.51 110.72-6.94L110.72-6.94L110.72-6.94Q110.72-5.38 111.58-4.48L111.58-4.48L111.58-4.48Q112.45-3.58 113.73-3.46L113.73-3.46L113.73-3.46Q113.09-1.28 110.88 0L110.88 0L110.88 0Q108.67 1.28 105.79 1.28ZM119.87-6.40L119.87-6.40L119.87-6.40Q119.87-8.13 120.77-12.48L120.77-12.48L124.16-29.76L120.38-29.76L120.64-31.68L120.64-31.68Q128.32-33.98 135.74-39.62L135.74-39.62L138.82-39.62L137.28-32.64L142.27-32.64L141.70-29.76L136.77-29.76L133.50-12.48L133.50-12.48Q132.67-8.51 132.67-7.17L132.67-7.17L132.67-7.17Q132.67-4.10 135.36-3.46L135.36-3.46L135.36-3.46Q134.72-1.28 132.42 0L132.42 0L132.42 0Q130.11 1.28 126.85 1.28L126.85 1.28L126.85 1.28Q123.58 1.28 121.73-0.77L121.73-0.77L121.73-0.77Q119.87-2.82 119.87-6.40ZM157.92-1.92L157.92-1.92L157.92-1.92Q156.42-3.58 155.74-6.21L155.74-6.21L155.74-6.21Q155.07-8.83 155.07-13.12L155.07-13.12L155.07-13.12Q155.07-17.41 156.54-21.31L156.54-21.31L156.54-21.31Q158.02-25.22 160.70-28.03L160.70-28.03L160.70-28.03Q166.21-33.92 175.30-33.92L175.30-33.92L175.30-33.92Q178.56-33.92 180.93-32.83L180.93-32.83L191.87-33.92L187.14-8.96L187.14-8.96Q186.94-8.19 186.94-6.78L186.94-6.78L186.94-6.78Q186.94-5.38 187.81-4.48L187.81-4.48L187.81-4.48Q188.67-3.58 189.95-3.46L189.95-3.46L189.95-3.46Q189.31-1.28 186.98 0L186.98 0L186.98 0Q184.64 1.28 182.02 1.28L182.02 1.28L182.02 1.28Q179.39 1.28 177.63 0.29L177.63 0.29L177.63 0.29Q175.87-0.70 175.36-2.37L175.36-2.37L175.36-2.37Q174.34-0.77 172.16 0.26L172.16 0.26L172.16 0.26Q169.98 1.28 167.07 1.28L167.07 1.28L167.07 1.28Q164.16 1.28 161.79 0.51L161.79 0.51L161.79 0.51Q159.42-0.26 157.92-1.92ZM171.42-27.90L171.42-27.90L171.42-27.90Q170.69-26.75 170.05-24.80L170.05-24.80L170.05-24.80Q169.41-22.85 168.35-17.63L168.35-17.63L168.35-17.63Q167.30-12.42 167.30-8.70L167.30-8.70L167.30-8.70Q167.30-4.99 167.87-3.90L167.87-3.90L167.87-3.90Q168.45-2.82 169.47-2.82L169.47-2.82L169.47-2.82Q171.52-2.82 173.02-4.77L173.02-4.77L173.02-4.77Q174.53-6.72 175.10-10.18L175.10-10.18L178.50-28.93L178.50-28.93Q177.15-30.08 175.58-30.08L175.58-30.08L175.58-30.08Q174.02-30.08 173.09-29.57L173.09-29.57L173.09-29.57Q172.16-29.06 171.42-27.90ZM196.35-6.40L196.35-6.40L196.35-6.40Q196.35-8.13 197.25-12.48L197.25-12.48L200.64-29.76L196.86-29.76L197.12-31.68L197.12-31.68Q204.80-33.98 212.22-39.62L212.22-39.62L215.30-39.62L213.76-32.64L218.75-32.64L218.18-29.76L213.25-29.76L209.98-12.48L209.98-12.48Q209.15-8.51 209.15-7.17L209.15-7.17L209.15-7.17Q209.15-4.10 211.84-3.46L211.84-3.46L211.84-3.46Q211.20-1.28 208.90 0L208.90 0L208.90 0Q206.59 1.28 203.33 1.28L203.33 1.28L203.33 1.28Q200.06 1.28 198.21-0.77L198.21-0.77L198.21-0.77Q196.35-2.82 196.35-6.40ZM256.64-42.69L256.64-42.69L256.64-42.69Q272.32-42.69 272.32-31.62L272.32-31.62L272.32-31.62Q272.32-25.54 268.42-21.89L268.42-21.89L268.42-21.89Q264.58-18.24 257.86-18.24L257.86-18.24L257.86-18.24Q254.72-18.24 252.29-20.03L252.29-20.03L252.29-20.03Q251.14-20.80 250.37-21.82L250.37-21.82L250.37-21.82Q255.04-21.82 257.50-24.67L257.50-24.67L257.50-24.67Q259.97-27.52 259.97-33.09L259.97-33.09L259.97-33.09Q259.97-38.66 254.46-38.66L254.46-38.66L252.93-38.66L252.93-38.66Q252.54-38.66 252.22-38.59L252.22-38.59L244.86 0L230.98 0L238.85-41.92L238.85-41.92Q245.70-42.56 249.66-42.62L249.66-42.62L249.66-42.62Q253.63-42.69 256.64-42.69ZM275.42-1.92L275.42-1.92L275.42-1.92Q273.92-3.58 273.25-6.21L273.25-6.21L273.25-6.21Q272.58-8.83 272.58-13.12L272.58-13.12L272.58-13.12Q272.58-17.41 274.05-21.31L274.05-21.31L274.05-21.31Q275.52-25.22 278.21-28.03L278.21-28.03L278.21-28.03Q283.71-33.92 292.80-33.92L292.80-33.92L292.80-33.92Q296.06-33.92 298.43-32.83L298.43-32.83L309.38-33.92L304.64-8.96L304.64-8.96Q304.45-8.19 304.45-6.78L304.45-6.78L304.45-6.78Q304.45-5.38 305.31-4.48L305.31-4.48L305.31-4.48Q306.18-3.58 307.46-3.46L307.46-3.46L307.46-3.46Q306.82-1.28 304.48 0L304.48 0L304.48 0Q302.14 1.28 299.52 1.28L299.52 1.28L299.52 1.28Q296.90 1.28 295.14 0.29L295.14 0.29L295.14 0.29Q293.38-0.70 292.86-2.37L292.86-2.37L292.86-2.37Q291.84-0.77 289.66 0.26L289.66 0.26L289.66 0.26Q287.49 1.28 284.58 1.28L284.58 1.28L284.58 1.28Q281.66 1.28 279.30 0.51L279.30 0.51L279.30 0.51Q276.93-0.26 275.42-1.92ZM288.93-27.90L288.93-27.90L288.93-27.90Q288.19-26.75 287.55-24.80L287.55-24.80L287.55-24.80Q286.91-22.85 285.86-17.63L285.86-17.63L285.86-17.63Q284.80-12.42 284.80-8.70L284.80-8.70L284.80-8.70Q284.80-4.99 285.38-3.90L285.38-3.90L285.38-3.90Q285.95-2.82 286.98-2.82L286.98-2.82L286.98-2.82Q289.02-2.82 290.53-4.77L290.53-4.77L290.53-4.77Q292.03-6.72 292.61-10.18L292.61-10.18L296-28.93L296-28.93Q294.66-30.08 293.09-30.08L293.09-30.08L293.09-30.08Q291.52-30.08 290.59-29.57L290.59-29.57L290.59-29.57Q289.66-29.06 288.93-27.90ZM358.91 1.28L358.91 1.28L358.91 1.28Q351.17 1.28 351.17-4.74L351.17-4.74L351.17-4.74Q351.17-7.36 352.29-12.45L352.29-12.45L352.29-12.45Q353.41-17.54 353.79-19.58L353.79-19.58L353.79-19.58Q354.69-24.26 354.69-25.73L354.69-25.73L354.69-25.73Q354.69-28.99 352.26-28.99L352.26-28.99L352.26-28.99Q350.66-28.99 349.12-26.78L349.12-26.78L349.12-26.78Q347.58-24.58 346.88-20.16L346.88-20.16L342.91 0L330.43 1.28L333.89-16.13L333.89-16.13Q334.46-19.01 334.98-22.27L334.98-22.27L334.98-22.27Q335.49-25.54 335.49-26.05L335.49-26.05L335.49-26.05Q335.49-28.99 333.31-28.99L333.31-28.99L333.31-28.99Q331.84-28.99 330.24-26.82L330.24-26.82L330.24-26.82Q328.64-24.64 327.74-20.16L327.74-20.16L323.84 0L311.23 1.28L317.95-32.64L328.38-33.92L327.30-27.46L327.30-27.46Q328.96-30.91 332.03-32.42L332.03-32.42L332.03-32.42Q335.10-33.92 339.90-33.92L339.90-33.92L339.90-33.92Q342.66-33.92 344.45-32.58L344.45-32.58L344.45-32.58Q346.24-31.23 346.82-29.06L346.82-29.06L346.82-29.06Q347.90-31.30 350.69-32.61L350.69-32.61L350.69-32.61Q353.47-33.92 356.90-33.92L356.90-33.92L356.90-33.92Q360.32-33.92 362.02-33.18L362.02-33.18L362.02-33.18Q363.71-32.45 364.74-31.23L364.74-31.23L364.74-31.23Q366.46-28.99 366.46-24.90L366.46-24.90L366.46-24.90Q366.46-20.86 364.74-12.48L364.74-12.48L364.74-12.48Q363.84-8.38 363.84-6.88L363.84-6.88L363.84-6.88Q363.84-5.38 364.70-4.48L364.70-4.48L364.70-4.48Q365.57-3.58 366.85-3.46L366.85-3.46L366.85-3.46Q366.21-1.28 364 0L364 0L364 0Q361.79 1.28 358.91 1.28Z" fill="#fff"></path></g></g><style>text {
  font-size: 64px;
  font-family: Arial Black;
  dominant-baseline: central;
  text-anchor: middle;
}</style></svg>